# xmcd
#
# Track frame offsets:
#	150
#	9697
#	23859
#	35283
#	46763
#	62589
#	74125
#	85723
#	104950
#	118847
#	131755
#	145060
#	159375
#	171085
#	183254
#	195925
#	204535
#	218983
#	228672
#	244318
#	254760
#	267696
#	279796
#	289785
#	303926
#
# Disc length: 4213 seconds
#
# Revision: 1
# Processed by: cddbd v1.5.2PL0 Copyright (c) Steve Scherf et al.
# Submitted via: audiograbber 1.83.01
#
DISCID=7b107319
DTITLE=The Old School - A Collection Vol. 1&2
DYEAR=1995
DGENRE=Bluegrass 
TTITLE0=Head Over Heels
TTITLE1=All About You
TTITLE2=Julianne Johnson
TTITLE3=Hot Corn, Cold Corn
TTITLE4=The Old Arkansas
TTITLE5=Blackboard of My Heart
TTITLE6=Redeye
TTITLE7=Bookmiller Shannon 
TTITLE8=Down At the Old School
TTITLE9=Wild Bill Jones
TTITLE10=Sleep With One Eye Open
TTITLE11=Wait a Little Longer, Please Jesus
TTITLE12=Dark Hollow
TTITLE13=Walkin' In My Sleep
TTITLE14=Uncle Pen
TTITLE15=Half Shell Hop
TTITLE16=Happy Time Waltz
TTITLE17=Nobody But You
TTITLE18=Sweet Georgia Brown
TTITLE19=If I Lose
TTITLE20=Going To Cedar Falls
TTITLE21=Big Black Train
TTITLE22=Bluegrass Special
TTITLE23=Talk It All Over With Him
TTITLE24=Angeline the Baker
EXTD=
EXTT0=
EXTT1=
EXTT2=
EXTT3=
EXTT4=
EXTT5=
EXTT6=
EXTT7=
EXTT8=
EXTT9=
EXTT10=
EXTT11=
EXTT12=
EXTT13=
EXTT14=
EXTT15=
EXTT16=
EXTT17=
EXTT18=
EXTT19=
EXTT20=
EXTT21=
EXTT22=
EXTT23=
EXTT24=
PLAYORDER=
